<?xml version="1.0" encoding="UTF-8"?>
<svg width="60px" height="60px" viewBox="0 0 60 60" version="1.1" xmlns="http://www.w3.org/2000/svg" xmlns:xlink="http://www.w3.org/1999/xlink">
    <!-- Generator: Sketch 50 (54983) - http://www.bohemiancoding.com/sketch -->
    <title>logo-white-navbar</title>
    <desc>Created with Sketch.</desc>
    <defs></defs>
    <g id="Page-1" stroke="none" stroke-width="1" fill="none" fill-rule="evenodd">
        <g id="RGB-logo-binkley-final" fill="#FFFFFF">
            <g id="logo-white-navbar">
                <path d="M13.5443578,13.5088088 L26.3884495,18.378999 L26.3884495,40 L36.1911141,40 L36.1911141,30.7991857 L41.1021311,27.4742109 L46.0133786,30.7994167 L46.0133786,40 L54.3910228,40 C54.6133076,39.4315493 54.8169149,38.8538554 55,38.2669185 L47.7427723,38.2669185 L47.7427723,31.9700555 L49.5489511,33.1929179 L50.5171809,31.756771 L41.1021311,25.3829592 L31.6868506,31.756771 L32.6553111,33.1929179 L34.4617204,31.9700555 L34.4617204,38.2669185 L28.1178432,38.2669185 L28.1178432,17.1817863 L11.8149641,11 L11.8149641,38.2669185 L5,38.2669185 C5.18308515,38.8538554 5.38646184,39.4315493 5.60874658,40 L13.5443578,40 L13.5443578,13.5088088" id="Fill-21"></path>
                <path d="M48.7037473,43 C46.7570017,43 45.7518758,44.0823191 44.9442729,44.951538 C44.223524,45.7273733 43.6543029,46.3403408 42.4990502,46.3403408 C41.3437974,46.3403408 40.7745763,45.7273733 40.0540609,44.951538 C39.2466915,44.0823191 38.2415656,43 36.2945865,43 C34.3476074,43 33.3424815,44.0823191 32.5348785,44.9517592 C31.8143632,45.7273733 31.2451421,46.3403408 30.0901228,46.3403408 C28.9346366,46.3403408 28.3656489,45.7273733 27.6451336,44.951538 C26.8375306,44.0823191 25.8324047,43 23.8856591,43 C21.9389135,43 20.9337876,44.0823191 20.1264181,44.9517592 C19.4059028,45.7273733 18.8369151,46.3403408 17.6818958,46.3403408 C16.5266431,46.3403408 15.9576554,45.7273733 15.2371401,44.951538 C14.4297707,44.0823191 13.4248782,43 11.4783661,43 C9.74992306,43 8.76440935,43.8532861 8,44.6532419 C8.33620937,45.1217083 8.68852877,45.5788891 9.05649124,46.0238991 C9.76626657,45.2600133 10.3354877,44.6596592 11.4783661,44.6596592 C12.6333853,44.6596592 13.202373,45.2726267 13.9228883,46.0480195 C14.7302578,46.9176809 15.7351502,48 17.6818958,48 C19.628408,48 20.6333004,46.9176809 21.4409034,46.0482408 C22.1611852,45.2726267 22.7304064,44.6596592 23.8856591,44.6596592 C25.0409118,44.6596592 25.610133,45.2726267 26.3306483,46.0482408 C27.1382512,46.9176809 28.1431437,48 30.0901228,48 C32.0368684,48 33.0415274,46.9179022 33.8491303,46.0482408 C34.5698791,45.2726267 35.1391003,44.6596592 36.2945865,44.6596592 C37.4498392,44.6596592 38.0190604,45.2726267 38.7398092,46.0482408 C39.5471786,46.9176809 40.5520711,48 42.4990502,48 C44.4457958,48 45.4509217,46.9179022 46.2585246,46.0482408 C46.9792735,45.2726267 47.5482611,44.6596592 48.7037473,44.6596592 C49.7548686,44.6596592 50.3210545,45.1670724 50.9570505,45.842443 C51.3203434,45.3945563 51.6684602,44.9356052 52,44.4649259 C51.2601059,43.7249391 50.2977066,43 48.7037473,43" id="Fill-22"></path>
                <path d="M6.84009056,46.1492498 C6.83915692,46.14995 6.83798987,46.1508836 6.83705623,46.1513505 C5.43962841,44.153599 4.29311673,41.9684197 3.44537031,39.6401604 L3.44957169,39.6401604 C3.23996919,39.065273 3.04973975,38.4812825 2.87724949,37.8895895 L2.87328152,37.8895895 C2.14340732,35.3846393 1.75057769,32.7375427 1.75057769,30.0001167 C1.75057769,26.7050755 2.31963215,23.5412104 3.36110917,20.5986174 C3.39191933,20.5110889 3.42202927,20.4233269 3.45377308,20.3360318 C3.47804776,20.2695101 3.50348948,20.2036886 3.52823098,20.1376338 C3.58658357,19.9805492 3.6458698,19.8239315 3.70702332,19.668014 C3.71519268,19.6472405 3.72382886,19.6267005 3.73199823,19.605927 C5.01155381,16.3832428 6.86833322,13.450453 9.17326051,10.9347659 C10.6509815,9.32167323 12.3130967,7.88060329 14.1259949,6.64446683 C15.9790397,5.38102148 17.9894032,4.33277963 20.12114,3.5342859 C20.216138,3.49880767 20.3109026,3.46332943 20.4063674,3.42878483 C20.5648531,3.37159952 20.7235721,3.31488102 20.8832248,3.26049662 C21.0991294,3.18673923 21.3159676,3.11554935 21.5342063,3.04692697 C21.6576804,3.008181 21.7816213,2.9710689 21.9055622,2.93419021 C22.1132974,2.87186988 22.3219662,2.81188365 22.5318022,2.75446493 C22.6195645,2.73042375 22.7073268,2.70614917 22.7953225,2.68304164 C23.0950214,2.60391583 23.3963541,2.52875799 23.700021,2.45943538 C23.7116915,2.45686788 23.7231286,2.45453378 23.7347992,2.45173287 C24.0562052,2.37867571 24.3799454,2.31215402 24.7055528,2.25030051 C24.7235254,2.24679937 24.741498,2.24329823 24.7594706,2.23979709 C26.4582312,1.91979273 28.2095091,1.75057088 30,1.75057088 C45.5766403,1.75057088 58.2494223,14.4233036 58.2494223,30.0001167 C58.2494223,32.7375427 57.8568261,35.3846393 57.1269519,37.8895895 L57.1227505,37.8895895 C56.9504937,38.4812825 56.7600308,39.065273 56.5506617,39.6401604 L56.5546297,39.6401604 C55.7304577,41.9035319 54.6240926,44.0317592 53.2791821,45.9842293 C53.2782485,45.9835291 53.2770814,45.982362 53.2763812,45.9814284 C52.9440049,46.4638857 52.5980907,46.9367733 52.2372383,47.3968233 C52.2381719,47.3977569 52.2391056,47.3986906 52.2402726,47.3993908 C47.0643979,54.0004435 39.0194431,58.2494291 30,58.2494291 C21.0517471,58.2494291 13.0632775,54.0667318 7.88343487,47.5546081 C7.88460192,47.5536744 7.88576897,47.5527408 7.88670261,47.5520406 C7.5237495,47.0957251 7.17480102,46.6275057 6.84009056,46.1492498 Z M30,60 C46.5420255,60 60,46.5420779 60,30.0001167 C60,13.4579221 46.5420255,0 30,0 C13.4579745,0 0,13.4579221 0,30.0001167 C0,46.5420779 13.4579745,60 30,60 Z" id="Fill-23"></path>
                <path d="M18.8907881,38.2664685 L20.1092119,38.2664685 L20.1092119,34.7335315 L18.8907881,34.7335315 L18.8907881,38.2664685 Z M17,40 L22,40 L22,33 L17,33 L17,40 Z" id="Fill-24"></path>
                <polygon id="Fill-25" points="15 22 17 22 17 20 15 20"></polygon>
                <polygon id="Fill-26" points="15 26 17 26 17 24 15 24"></polygon>
                <polygon id="Fill-27" points="15 30 17 30 17 28 15 28"></polygon>
                <polygon id="Fill-28" points="23 30 25 30 25 28 23 28"></polygon>
                <polygon id="Fill-29" points="23 26 25 26 25 24 23 24"></polygon>
                <path d="M40.8907881,38.2664685 L42.1092119,38.2664685 L42.1092119,34.7335315 L40.8907881,34.7335315 L40.8907881,38.2664685 Z M39,40 L44,40 L44,33 L39,33 L39,40 Z" id="Fill-30"></path>
                <polygon id="Fill-31" points="23 22 25 22 25 20 23 20"></polygon>
                <polygon id="Fill-32" points="19 26 21 26 21 24 19 24"></polygon>
                <polygon id="Fill-33" points="19 22 21 22 21 20 19 20"></polygon>
                <polygon id="Fill-34" points="19 30 21 30 21 28 19 28"></polygon>
            </g>
        </g>
    </g>
</svg>