<?xml version="1.0" encoding="UTF-8"?>
<svg width="52px" height="61px" viewBox="0 0 52 61" version="1.1" xmlns="http://www.w3.org/2000/svg" xmlns:xlink="http://www.w3.org/1999/xlink">
    <!-- Generator: Sketch 50 (54983) - http://www.bohemiancoding.com/sketch -->
    <title>logoaltwhite</title>
    <desc>Created with Sketch.</desc>
    <defs>
        <ellipse id="path-1" cx="24.9473684" cy="24.8579315" rx="24.9473684" ry="24.8579315"></ellipse>
    </defs>
    <g id="Page-1" stroke="none" stroke-width="1" fill="none" fill-rule="evenodd">
        <g id="Artboard" transform="translate(-548.000000, -420.000000)">
            <g id="logoaltwhite" transform="translate(549.000000, 420.000000)">
                <g id="black">
                    <g id="2-buildings-copy-3">
                        <g id="outline-building-w/-hancock" transform="translate(2.812438, 0.000000)" stroke="#FFFFFF" stroke-width="2">
                            <polyline id="Path-12" points="0 45.6680162 7.08317767 45.6680162 10.1039446 4.9819654 12.2913965 4.9819654 12.2913965 0 12.2913965 4.9819654 15.9371498 4.9819654 15.9371498 0 15.9371498 4.9819654 18.1246017 4.9819654 21.2971081 45.6680162 26.0452733 45.6518428 26.0452733 37.8713646 32.6715576 33.4752279 37.7645948 36.8459401 37.7645948 34.3057759 37.7645948 36.8459401 39.2925059 37.8713646 39.2925059 45.6680162 44.3740248 45.6680162"></polyline>
                        </g>
                        <g id="stock-vector-blue-and-white-seamless-wave-pattern-linear-design-vector-illustration-333060515" transform="translate(0.000000, 9.652558)">
                            <mask id="mask-2" fill="white">
                                <use xlink:href="#path-1"></use>
                            </mask>
                            <g id="Mask"></g>
                            <path d="M4.99989012,41.8277512 C8.43731458,41.8277512 8.3331502,38.9216047 11.7705747,38.9216047 C15.2079991,38.9216047 15.2079991,41.8277512 18.5412592,41.8277512 C21.8745193,41.8277512 21.9786837,38.9216047 25.3119437,38.9216047 C28.7493682,38.9216047 28.7493682,41.8277512 32.0826283,41.8277512 C35.5200527,41.8277512 35.5200527,38.9216047 38.8533128,38.9216047 C42.1865729,38.9216047 42.1865729,41.8277512 45.6239974,41.8277512" id="Path" stroke="#FFFFFF" stroke-width="2" mask="url(#mask-2)"></path>
                        </g>
                        <path d="M24.9473684,59.3684211 C32.1288118,59.3684211 38.6015303,56.3448877 43.1533213,51.5056777 C43.7750211,50.8447212 44.3608858,50.1498933 44.9078268,49.4242713 C48.0392189,45.2698803 49.8947368,40.1060978 49.8947368,34.5104895 C49.8947368,20.781833 38.7254195,9.65255797 24.9473684,9.65255797 C11.1693173,9.65255797 0,20.781833 0,34.5104895 C0,40.1065428 1.85581306,45.2707016 4.98765714,49.4252624 C5.54478254,50.1643194 6.14228799,50.8714277 6.7769097,51.5433351 C11.3268234,56.3605681 17.7845712,59.3684211 24.9473684,59.3684211 Z" id="frame" stroke="#FFFFFF" stroke-width="2"></path>
                    </g>
                </g>
            </g>
        </g>
    </g>
</svg>